<?xml version="1.0" encoding="UTF-8"?>
<!DOCTYPE svg PUBLIC "-//W3C//DTD SVG 1.1//EN" "http://www.w3.org/Graphics/SVG/1.1/DTD/svg11.dtd">
<!-- Creator: CorelDRAW -->
<svg xmlns="http://www.w3.org/2000/svg" xml:space="preserve" width="100.2mm" height="100.2mm" style="shape-rendering:geometricPrecision; text-rendering:geometricPrecision; image-rendering:optimizeQuality; fill-rule:evenodd; clip-rule:evenodd"
viewBox="0 0 64.313 64.313"
 xmlns:xlink="http://www.w3.org/1999/xlink">
 <defs>
  <style type="text/css">
   <![CDATA[
    .str2 {stroke:black;stroke-width:0.128369}
    .str3 {stroke:black;stroke-width:0.962769}
    .str0 {stroke:black;stroke-width:0.962769;stroke-linecap:round;stroke-linejoin:round}
    .str1 {stroke:black;stroke-width:0.962769;stroke-linecap:round;stroke-linejoin:round}
    .fil0 {fill:none}
   ]]>
  </style>
 </defs>
 <g id="Warstwa_x0020_1">
  <metadata id="CorelCorpID_0Corel-Layer"/>
  <g id="_429447496">
   <g>
    <path id="_206482232" class="fil0 str0" d="M13.1314 51.3006l0 -2.19839c0,-1.09916 0.549613,-2.19832 2.19845,-2.19832l4.39684 0m-8.79348 4.39671l8.79348 0"/>
    <path id="_206484104" class="fil0 str0" d="M19.727 44.7052l0 -2.19839c0,-2.85191 -3.29768,-2.79408 -3.29768,0 0,2.85204 -3.29761,2.79421 -3.29761,0l0 -2.19826"/>
    <path id="_206483936" class="fil0 str0" d="M15.3303 20.5225c-1.09923,0 -2.19839,1.09923 -2.19839,2.19839l0 2.19839m6.5951 -4.39677l-4.39671 0 0 2.19839c0,1.09923 1.14775,2.19839 2.19832,2.19839 1.09916,0 2.19839,-1.09916 2.19839,-2.19839l0 -2.19839z"/>
    <path id="_206483072" class="fil0 str0" d="M13.1318 27.1177l6.59516 0m-6.59516 3.29736l6.59516 0m0 -3.29736l0 4.39665c0,1.09916 -0.549677,2.19839 -2.19839,2.19839l-4.39677 0"/>
    <path id="_206482064" class="fil0 str0" d="M13.1317 11.7286l6.59516 0m-6.59516 3.29736l6.59516 0m0 -3.29736l0 4.39665c0,1.09916 -0.549677,2.19839 -2.19839,2.19839l-4.39677 0"/>
    <line id="_206483168" class="fil0 str0" x1="15.3301" y1="38.1101" x2="15.3301" y2= "35.9117" />
   </g>
   <path id="_206479256" class="fil0 str1" d="M57.1902 44.73c-0.983051,1.07856 -2.57136,1.50436 -2.93356,2.2817 -1.74011,3.73336 -2.86623,5.42841 -5.08297,7.01474 -1.87753,1.34345 -4.34048,2.82829 -8.08354,3.16064 -3.00628,0.26688 -4.92951,-0.112837 -7.72969,-1.17689 -1.26103,-0.479074 -4.4444,-2.56995 -5.23271,-3.61488 -1.08466,-1.43754 -2.06617,-2.37175 -2.57002,-4.1591 -0.549228,-1.94665 -1.0559,-3.8315 -1.09794,-5.89574 -0.0216302,-1.05834 0.0197689,-1.97971 0.130102,-3.13818 0.16964,-0.430101 0.446276,-0.840369 0.817648,-1.12573 0.0370345,-0.0285621 0.0108472,-0.0130937 0.0342104,-0.341398 0.0311937,-0.43883 0.165981,-0.549035 0.18928,-0.662513 0.0337611,-0.164569 -0.0764439,-1.89133 0.0946723,-2.65018 0.356481,-1.58119 0.765273,-2.7075 1.11174,-4.10108 0.0186135,-0.0751602 0.0280487,-0.131258 0.024005,-0.158087 -1.02792,-1.19576 -1.5385,-0.781191 -1.63286,-4.02771l0.150705 -0.161874c0.522463,-0.235943 1.89903,-0.845632 2.44447,-1.1826m6.87616 5.44728l-0.515595 0.405647c-1.19942,0.311295 -2.59691,-0.340307 -2.93414,-1.60904m-5.33823 9.69707c0.52779,0.857571 0.904361,1.58992 1.46707,2.4136 0.239023,0.34987 1.09024,1.65628 1.56174,1.65628 0.280358,0 0.53883,-0.00994861 0.769317,-0.0647623 0.351732,-0.0836967 2.35115,-1.84897 2.66867,-3.67425 0.120025,-0.74069 0.693643,-1.68337 1.41976,-1.9403 0.193067,-0.0684208 0.575351,-0.206803 0.80449,-0.0946723l0.68087 0.143196m14.8327 9.40638c-0.35462,1.06418 -1.57747,1.7335 -2.83632,2.14736 -1.54024,0.506481 -3.05724,0.787481 -4.63682,0.27118 -0.638316,-0.2086 -1.25359,-0.51752 -1.84415,-0.884207 -1.20956,-0.751088 -2.20134,-1.86097 -2.75301,-3.17489 -0.158921,-0.378625 -0.436134,-1.46174 -0.626698,-2.1308m-9.04368 -6.34876c0.152246,-0.440242 0.364825,-0.656352 0.00763797,-1.05256m10.008 -11.1098c-0.248138,-0.113607 -2.11604,-0.950895 -2.22419,-1.04114 -0.501924,-0.41874 -0.221501,-1.38966 -0.0473682,-1.893m9.66543 2.87432c0.786454,-0.351347 2.08497,-0.769252 3.17701,-1.53343 1.37246,-0.96033 2.50082,-2.34781 2.79177,-3.47046m-0.283953 -2.27162c-0.182348,0.297881 -1.38626,0.937416 -1.75108,1.08851 -2.06796,0.856672 -4.1616,-0.059114 -5.72623,-1.4197 -1.12785,-0.980805 -1.86161,-2.0102 -3.02881,-3.07611 -1.00019,-0.913411 -2.45679,-1.35956 -3.78593,-1.41976 -0.327277,-0.0148266 -0.932281,-0.0475608 -1.53921,0.0263157 -0.612129,0.0745825 -1.2267,0.256674 -1.56091,0.391911 -0.44082,0.178305 -0.94852,0.440884 -1.15911,0.575608 -0.372977,0.238638 -0.820151,0.753463 -1.10815,1.08844l-0.426892 0.579009 -0.0955709 0.644799c-0.21611,0.459369 -0.274774,1.48093 -0.331257,2.03491 -0.05353,0.526314 0.0117458,1.19056 0.180615,1.69736 0.284402,0.853463 1.12111,2.0842 1.81116,2.61501 0.412707,-0.0870985 0.69621,-0.179075 1.10115,-0.314312 0.199871,-0.066752 0.321565,-0.0994861 0.741974,-0.26765m2.45294 17.9445c0.441141,0 0.798713,0.357572 0.798713,0.798649 0,0.441141 -0.357572,0.798713 -0.798713,0.798713 -0.441077,0 -0.798649,-0.357572 -0.798649,-0.798713 0,-0.441077 0.357572,-0.798649 0.798649,-0.798649zm4.70017 -2.58048c0.441141,0 0.798713,0.357572 0.798713,0.798713 0,0.441077 -0.357572,0.798649 -0.798713,0.798649 -0.441077,0 -0.798649,-0.357572 -0.798649,-0.798649 0,-0.441141 0.357572,-0.798713 0.798649,-0.798713zm4.70017 -2.58041c0.441077,0 0.798713,0.357572 0.798713,0.798649 0,0.441141 -0.357637,0.798713 -0.798713,0.798713 -0.441077,0 -0.798713,-0.357572 -0.798713,-0.798713 0,-0.441077 0.357637,-0.798649 0.798713,-0.798649zm-0.0304235 -5.39144c0.441077,0 0.798649,0.357572 0.798649,0.798649 0,0.441141 -0.357572,0.798713 -0.798649,0.798713 -0.441141,0 -0.798713,-0.357572 -0.798713,-0.798713 0,-0.441077 0.357572,-0.798649 0.798713,-0.798649zm-4.5772 -2.67271c0.441077,0 0.798649,0.357572 0.798649,0.798713 0,0.441077 -0.357572,0.798649 -0.798649,0.798649 -0.441141,0 -0.798713,-0.357572 -0.798713,-0.798649 0,-0.441141 0.357572,-0.798713 0.798713,-0.798713zm-1.02381 3.43452c-0.33299,0.0405647 -0.544478,0.0701538 -0.927018,0.521692l-1.01469 1.75763c-0.0826698,0.169897 -0.0936453,0.567264 -0.0428753,0.733245 0.266174,0.437033 1.28498,2.35936 1.76963,2.35365 0.285429,-0.00340178 2.37952,-0.0134146 2.548,-0.0887031 0.263093,-0.117394 1.57945,-2.07079 1.57592,-2.39922 -0.00378689,-0.354042 -0.395185,-1.11328 -0.741846,-1.67522 -0.242875,-0.393452 -0.437354,-0.806287 -0.567071,-1.02028 -0.0845953,-0.139537 -0.230038,-0.184531 -0.33729,-0.187419 -0.57028,-0.0155969 -2.11674,-0.0131578 -2.26276,0.00462129zm-6.82212 0c0.863861,1.49646 1.16688,2.02117 1.38331,2.39614 0.165789,0.287034 0.127214,0.329716 0.0496147,0.48806 -0.200898,0.347945 -0.915914,1.58645 -1.34467,2.32913l0.00622591 0.316623c0.244928,0.507829 0.6801,1.17785 1.29467,2.24242 0.106161,0.184852 0.0689985,0.462643 0.0228497,0.514311 -0.0974322,0.108985 -0.934143,1.62734 -1.02477,1.77503 -0.280487,0.457187 -0.373362,0.595954 -0.273491,0.86784l1.34659 2.33234c0.000770215,0.00205391 0.0770857,0.0146983 0.289344,0.18697 0.926762,-0.0670087 1.85917,-0.0689343 2.7824,-0.139987l0.236584 -0.236649c0.383182,-0.517649 0.949868,-1.51206 1.23876,-2.01251 0.0869701,-0.0426828 0.308343,-0.29955 0.466494,-0.327213 0.859239,-0.150449 2.48433,0.0948007 2.95756,-0.237034 0.155134,-0.108857 0.280615,-0.28851 0.38652,-0.486583 0.260975,-0.488188 0.49666,-0.988379 0.758662,-1.47535 0.173684,-0.322849 0.210205,-0.492039 0.891781,-0.47548 0.59788,0.0146983 1.19717,0.0427469 1.78099,0.0392168 0.374581,-0.00218228 0.669445,-0.0656609 0.861807,-0.319575 0.383631,-0.506417 0.877532,-1.28427 1.10166,-1.84666 0.373619,-0.641654 0.134017,-1.08883 -0.222849,-1.58408 -0.358856,-0.497944 -0.633181,-0.900317 -0.902436,-1.45404 -0.136906,-0.281321 -0.100385,-0.390242 0.241655,-0.880549 0.0768932,-0.110333 1.02567,-1.46925 1.03883,-1.79935l-0.0641846 -0.305134 -1.25982 -2.41424c-0.114377,-0.198138 -0.0681641,-0.174646 -0.29634,-0.212258 -0.882667,-0.146213 -1.76501,-0.0947365 -2.69704,-0.101155 -0.32195,-0.00205391 -0.301475,0.0367136 -0.480999,-0.252374 -0.29082,-0.468483 -0.728559,-1.43523 -1.02715,-1.95481 -0.206289,-0.358984 -0.160333,-0.337675 -0.527212,-0.34005 -0.757571,-0.00519895 -2.47444,-0.0307444 -2.81892,0.000706031l-1.33478 2.06309c-0.124518,0.138767 -0.240885,0.522527 -0.802821,0.568997 -0.107959,0.00892166 -0.832153,0.00288831 -1.36726,0.0126444 -0.277021,0.00507058 -0.532796,-0.000192554 -0.806223,0.00462129 -0.159691,0.00282412 -0.354427,0.0651474 -0.44435,0.220923 -0.344992,0.59788 -0.969829,1.6799 -1.2491,2.16353l-0.191912 0.332476zm-1.88799 -8.18643c0,0.34756 -0.0456994,0.895247 -0.378625,1.08851l-0.520537 0.141976 -0.283953 -0.0473682c-0.56675,-0.0442874 -0.70802,0.120025 -1.08844,-0.0946081 -0.179974,-0.101604 -2.6093,-3.69305 -2.83946,-4.25929 -0.228754,-0.562578 -0.0102054,-0.967005 0.141976,-1.467 0.18023,-0.592103 0.86309,-3.39832 1.32567,-5.32976 0.0832474,-0.324132 0.299293,-0.620601 0.636134,-0.873232 0.0807442,-0.049358 0.155455,-0.105712 0.223106,-0.168035l10.8866 -1.54942c0.403657,0.693001 1.1663,1.14666 2.02368,1.11527 0.642488,-0.0234916 1.21232,-0.315082 1.60532,-0.763091l0.0349164 -0.494157 -0.030937 -0.307701 -0.449806 0.0665594 -0.690049 0.0982024 -0.20706 -0.28023 -0.414376 -0.560653 0.275737 -0.658727 0.137869 -0.329395 0.690113 -0.098395 0.416366 -0.0537867 -0.03267 -0.310653 -0.158921 -0.410653c-0.381385,-0.2586 -0.84544,-0.40263 -1.3412,-0.38453 -1.0672,0.0390884 -1.93311,0.817198 -2.12355,1.82406l-10.4787 1.49133c-0.113863,-0.144544 -0.263221,-0.262964 -0.430935,-0.359947 -0.291655,-0.168613 -0.931126,-0.115917 -1.67605,0.0987159 -0.263863,0.0759946 -0.390114,0.378689 -0.472976,0.628431l-3.5686 0.507893c-0.351924,0.0499998 -0.599869,0.379973 -0.549613,0.731961l0.0387033 0.272464c0.0501924,0.351988 0.379588,0.599741 0.73209,0.549549l3.42714 -0.487739c0.0329909,0.0873552 0.0423618,0.171694 0.00397945,0.25109 -1.20654,2.49441 -1.97451,3.99305 -2.74331,6.98271l0.093196 0.385172 0.120667 0.498971c0.360653,0.674195 0.625158,1.37368 0.899162,2.08228 0.471179,1.21893 0.999675,2.37425 1.56168,3.54934l0.141976 0.80449m30.92 16.1253c-0.193196,1.22631 -4.04511,2.54948 -5.14838,2.35981 -1.10333,-0.18973 -3.2247,-3.12001 -3.0308,-4.35018"/>
   <circle id="_206478656" class="fil0 str2" cx="32.1565" cy="32.1565" r="32.0923"/>
   <circle id="_208291088" class="fil0 str3" cx="32.1565" cy="32.1565" r="31.1295"/>
  </g>
 </g>
</svg>
