<?xml version="1.0" encoding="UTF-8" standalone="no"?>
<svg
   xmlns:dc="http://purl.org/dc/elements/1.1/"
   xmlns:cc="http://creativecommons.org/ns#"
   xmlns:rdf="http://www.w3.org/1999/02/22-rdf-syntax-ns#"
   xmlns:svg="http://www.w3.org/2000/svg"
   xmlns="http://www.w3.org/2000/svg"
   xmlns:sodipodi="http://sodipodi.sourceforge.net/DTD/sodipodi-0.dtd"
   xmlns:inkscape="http://www.inkscape.org/namespaces/inkscape"
   width="169.33301mm"
   height="169.33301mm"
   viewBox="0 0 169.33301 169.33301"
   version="1.1"
   id="svg5"
   xml:space="preserve"
   inkscape:version="1.0.1 (3bc2e813f5, 2020-09-07)"
   sodipodi:docname="hswro_wht.svg"><metadata
     id="metadata19"><rdf:RDF><cc:Work
         rdf:about=""><dc:format>image/svg+xml</dc:format><dc:type
           rdf:resource="http://purl.org/dc/dcmitype/StillImage" /><dc:title></dc:title></cc:Work></rdf:RDF></metadata><sodipodi:namedview
     id="namedview7"
     pagecolor="#ffffff"
     bordercolor="#000000"
     borderopacity="0.25"
     inkscape:showpageshadow="2"
     inkscape:pageopacity="0.0"
     inkscape:pagecheckerboard="0"
     inkscape:deskcolor="#d1d1d1"
     inkscape:document-units="mm"
     showgrid="false"
     inkscape:zoom="0.26362494"
     inkscape:cx="807.96603"
     inkscape:cy="675.20166"
     inkscape:window-width="2560"
     inkscape:window-height="1387"
     inkscape:window-x="1912"
     inkscape:window-y="-6"
     inkscape:window-maximized="1"
     inkscape:current-layer="layer1"
     inkscape:document-rotation="0" /><defs
     id="defs2">
	
	

		
		
		
		
		
		
		
		
		
		
		
		
		
		
		
		
		
		
	</defs><g
     inkscape:label="Layer 1"
     inkscape:groupmode="layer"
     id="layer1"
     transform="translate(389.04021,-24.363881)"><g
       id="g399"
       transform="translate(-210.05285,28.475329)"><path
         d="m -66.89716,49.423618 7.079721,-1.770862 2.474786,-24.764919 h -35.98907 -1.234897 -11.40195 l 1.00769,36.292819 -4.80624,-1.537464 -1.93019,-34.755355 h -11.10184 -0.57054 -7.92937 l 7.46259,72.535008 0.028,0.277854 6.74013,4.813691 9.04328,-4.538309 -0.87681,-19.311548 14.953541,6.656173 14.580625,-6.537622 -0.429866,9.36804 -4.989059,2.59702 -9.160579,-4.45062 -9.805192,4.708718 0.56807,20.852718 9.244543,6.05725 29.225425,-20.403222 3.904779,-37.754955 -10.355942,-2.098115 -12.018185,3.640521 0.663142,-19.605459 5.024858,-0.748359 -0.282843,9.101304 z m -45.96961,-25.300871 1.86224,33.504394 -8.85062,2.21296 -2.84645,-35.717354 z m -3.61088,74.712165 -2.34265,-26.585183 8.65553,3.852926 0.86938,19.128782 z m -1.74,-38.131607 7.83677,-1.958574 5.45585,1.744934 0.13069,4.727243 z m 34.144101,29.064882 5.475587,-2.851412 0.0037,-0.09013 7.400836,3.596065 -13.261715,8.230684 z m -9.876836,-4.099909 7.79971,3.788711 -7.797237,4.059153 -7.800968,-4.101141 z m 22.847073,-28.736395 7.288492,1.476955 -19.565949,6.784607 0.155423,-4.590171 z M -83.720368,38.624316 -84.476157,60.98116 h 0.0013 l -0.203965,5.968327 22.482784,-7.796 -3.688679,35.671664 -27.449627,19.163359 V 94.59052 l 7.994808,-4.162892 -0.44947,10.509102 15.838998,-9.8299 1.906719,-20.755162 -25.289748,11.340196 V 24.122747 h 34.625681 l -2.25248,22.542079 -5.295332,1.32506 0.902719,-12.103369 -11.594573,1.727642 v 0 z"
         id="path53"
         style="stroke-width:1.23491" /><g
         id="g388"
         transform="matrix(4.6432889,0,0,4.6432889,537.32644,-418.6255)"><path
           d="m -145.4867,115.66838 h 0.61251 l 0.28416,2.54979 0.032,0.59558 h 0.0619 l 0.0593,-0.6694 0.45482,-2.47571 h 0.51144 l 0.43497,2.47571 0.0495,0.6694 h 0.0643 l 0.0296,-0.59558 0.25929,-2.54979 h 0.61516 l -0.59029,4.2201 h -0.64981 l -0.34846,-2.02856 -0.10874,-0.88212 h -0.0495 l -0.1061,0.88212 -0.36566,2.02856 h -0.64267 z"
           id="path37"
           style="stroke-width:0.264583" /><path
           d="m -141.56293,115.66838 h 0.69426 c 0.0791,0 0.16616,0.003 0.26062,0.01 0.0947,0.006 0.18944,0.0228 0.28416,0.0482 0.0947,0.0257 0.186,0.0638 0.27411,0.11509 0.0881,0.0513 0.16642,0.12118 0.23495,0.21008 0.0683,0.0889 0.12303,0.20056 0.16431,0.33497 0.041,0.13414 0.0617,0.29686 0.0617,0.48789 v 0.10609 c 0,0.32147 -0.0463,0.58288 -0.13838,0.78476 -0.0921,0.20188 -0.22807,0.34713 -0.40746,0.43603 l 0.67707,1.68751 h -0.67707 l -0.56092,-1.57903 h -0.23971 v 1.57903 h -0.62759 z m 0.7239,2.17911 c 0.11218,0 0.20664,-0.0124 0.28416,-0.037 0.0773,-0.0249 0.13996,-0.0664 0.18785,-0.12488 0.0476,-0.0587 0.0823,-0.136 0.10372,-0.23231 0.0214,-0.0963 0.0323,-0.21537 0.0323,-0.35719 v -0.33364 c 0,-0.10874 -0.0101,-0.20267 -0.0296,-0.28151 -0.0198,-0.0791 -0.0532,-0.1442 -0.10001,-0.19527 -0.0471,-0.0508 -0.10927,-0.0889 -0.18653,-0.11377 -0.0775,-0.0246 -0.17463,-0.037 -0.29184,-0.037 h -0.0963 v 1.71239 h 0.0963 z"
           id="path39"
           style="stroke-width:0.264583" /><path
           d="m -138.03974,119.92526 c -0.0677,0 -0.14076,-0.005 -0.21987,-0.0161 -0.0791,-0.0106 -0.15743,-0.0333 -0.23495,-0.068 -0.0773,-0.0347 -0.15187,-0.0833 -0.22357,-0.14711 -0.0717,-0.0632 -0.1352,-0.14711 -0.19024,-0.25056 -0.0553,-0.10398 -0.0995,-0.23204 -0.13229,-0.38417 -0.0331,-0.1524 -0.0495,-0.33417 -0.0495,-0.54504 v -1.4949 c 0,-0.21246 0.0167,-0.39396 0.0505,-0.54477 0.0336,-0.15055 0.0786,-0.27755 0.13467,-0.38048 0.0561,-0.10292 0.11986,-0.18467 0.19156,-0.24579 0.0717,-0.0611 0.14658,-0.10742 0.2249,-0.1397 0.0783,-0.032 0.1561,-0.0529 0.23363,-0.063 0.0775,-0.01 0.14896,-0.0148 0.2151,-0.0148 0.0624,0 0.13229,0.005 0.20876,0.0138 0.0765,0.009 0.15319,0.0286 0.22966,0.0593 0.0767,0.0304 0.15107,0.0759 0.22383,0.13599 0.0722,0.0603 0.13679,0.14182 0.19288,0.24474 0.0558,0.10292 0.10081,0.23072 0.13468,0.38285 0.0336,0.1524 0.0505,0.33629 0.0505,0.55219 v 1.49489 c 0,0.20929 -0.0172,0.38921 -0.0519,0.54002 -0.0347,0.15055 -0.0799,0.27834 -0.136,0.38285 -0.0561,0.10451 -0.12065,0.18865 -0.19394,0.25188 -0.073,0.0635 -0.14816,0.11298 -0.22489,0.14844 -0.0765,0.0355 -0.15267,0.059 -0.22834,0.0706 -0.0759,0.0114 -0.1442,0.0169 -0.20532,0.0169 z m 0,-0.48154 c 0.0624,0 0.11721,-0.0109 0.16431,-0.0323 0.0471,-0.0212 0.0855,-0.0585 0.11588,-0.11113 0.0304,-0.0526 0.0534,-0.12223 0.0693,-0.20875 0.0159,-0.0865 0.0236,-0.19553 0.0236,-0.32729 v -1.91982 c 0,-0.1352 -0.008,-0.24818 -0.0236,-0.33866 -0.0159,-0.0905 -0.0386,-0.16325 -0.0693,-0.21855 -0.0304,-0.055 -0.0691,-0.0942 -0.11588,-0.11721 -0.0468,-0.023 -0.10187,-0.0347 -0.16431,-0.0347 -0.0643,0 -0.12012,0.0116 -0.16801,0.0347 -0.0479,0.023 -0.0873,0.0622 -0.11853,0.11721 -0.0315,0.0553 -0.0548,0.12806 -0.0706,0.21855 -0.0159,0.0907 -0.0236,0.20373 -0.0236,0.33866 v 1.91982 c 0,0.13176 0.008,0.24077 0.0236,0.32729 0.0159,0.0865 0.0389,0.1561 0.0706,0.20876 0.0312,0.0526 0.0709,0.09 0.11853,0.11112 0.0479,0.0214 0.10372,0.0323 0.16801,0.0323 z"
           id="path41"
           style="stroke-width:0.264583" /><path
           d="m -135.48492,119.92526 c -0.0659,0 -0.13706,-0.005 -0.21379,-0.0161 -0.0765,-0.0106 -0.15319,-0.0333 -0.22966,-0.068 -0.0767,-0.0347 -0.14975,-0.0833 -0.21986,-0.14711 -0.0701,-0.0632 -0.13177,-0.14711 -0.18548,-0.25056 -0.0534,-0.10398 -0.096,-0.23204 -0.12832,-0.38417 -0.032,-0.1524 -0.0481,-0.33417 -0.0481,-0.54504 v -1.4949 c 0,-0.21246 0.0164,-0.39396 0.0495,-0.54477 0.0328,-0.15055 0.0765,-0.27755 0.13097,-0.38048 0.0542,-0.10292 0.11668,-0.18467 0.18785,-0.24579 0.0709,-0.0608 0.14394,-0.10742 0.21987,-0.1397 0.0757,-0.032 0.15108,-0.0529 0.22596,-0.063 0.0749,-0.01 0.14446,-0.0148 0.20875,-0.0148 0.16801,0 0.30824,0.0236 0.42122,0.0706 0.11298,0.0468 0.20373,0.11112 0.27173,0.19288 0.0685,0.0815 0.11694,0.17648 0.14578,0.28522 0.0288,0.10874 0.0434,0.2241 0.0434,0.34607 0,0.0907 -0.005,0.1741 -0.0138,0.25083 -0.009,0.0765 -0.0228,0.16087 -0.0408,0.25321 h -0.51885 v -0.21511 c 0,-0.23231 -0.0257,-0.40614 -0.0765,-0.52149 -0.0511,-0.11536 -0.1262,-0.17278 -0.22516,-0.17278 -0.0593,0 -0.11112,0.0114 -0.15557,0.0344 -0.0445,0.0233 -0.0818,0.0622 -0.11113,0.11748 -0.0296,0.055 -0.0524,0.12779 -0.068,0.21854 -0.0159,0.0907 -0.0236,0.20347 -0.0236,0.3384 v 1.92723 c 0,0.13176 0.006,0.2413 0.0185,0.32861 0.0122,0.0873 0.0323,0.15743 0.0606,0.21008 0.0278,0.0526 0.0646,0.0902 0.1098,0.11245 0.0455,0.0222 0.10028,0.0333 0.16431,0.0333 0.0413,0 0.081,-0.009 0.11853,-0.0283 0.0381,-0.0188 0.0714,-0.0487 0.10028,-0.0889 0.0286,-0.0402 0.0516,-0.0915 0.0691,-0.15319 0.0175,-0.0617 0.0262,-0.13468 0.0262,-0.21855 v -0.41275 h 0.58552 v 0.39053 c 0,0.33919 -0.0775,0.58975 -0.2323,0.75115 -0.15478,0.16139 -0.37703,0.24315 -0.66702,0.24447 z"
           id="path43"
           style="stroke-width:0.264583" /><path
           d="m -134.08131,118.50471 -0.25691,0.20003 -0.29184,-0.38285 0.54849,-0.43974 v -2.25584 h 0.63261 v 1.74704 l 0.48684,-0.39528 0.3212,0.41486 -0.80804,0.62521 v 1.3589 h 0.87498 v 0.51171 h -1.50733 z"
           id="path45"
           style="stroke-width:0.264583" /><path
           d="m -131.70667,115.66838 h 0.73633 l 0.78079,4.2201 h -0.64744 l -0.11589,-0.75591 h -0.77099 l -0.11113,0.75591 h -0.64981 z m 0.67945,2.98212 -0.2966,-2.10265 h -0.0272 l -0.29898,2.10265 z"
           id="path47"
           style="stroke-width:0.264583" /><path
           d="m -130.05118,115.66838 h 0.61251 l 0.28417,2.54979 0.032,0.59558 h 0.0619 l 0.0593,-0.6694 0.45482,-2.47571 h 0.51143 l 0.43498,2.47571 0.0495,0.6694 h 0.0643 l 0.0296,-0.59558 0.25929,-2.54979 h 0.61516 l -0.59029,4.2201 h -0.64982 l -0.34845,-2.02856 -0.10875,-0.88212 h -0.0495 l -0.10609,0.88212 -0.36566,2.02856 h -0.64267 z"
           id="path49"
           style="stroke-width:0.264583" /></g></g></g></svg>
